<svg id="検索用の虫眼鏡アイコン素材" xmlns="http://www.w3.org/2000/svg" width="24.008" height="24.009" viewBox="0 0 24.008 24.009">
  <path id="パス_8" data-name="パス 8" d="M98.862,102.4a3.634,3.634,0,0,0-3.629,3.631.5.5,0,1,0,1.007,0,2.626,2.626,0,0,1,2.622-2.624.5.5,0,0,0,0-1.007Z" transform="translate(-90.767 -97.598)" fill="#333"/>
  <path id="パス_9" data-name="パス 9" d="M16.959,14.138A9.2,9.2,0,0,0,4.266,1.438a9.265,9.265,0,0,0-2.828,2.83,9.2,9.2,0,0,0,12.693,12.7A9.266,9.266,0,0,0,16.959,14.138Zm-4.778.878a6.533,6.533,0,0,1-8.793-8.8A6.575,6.575,0,0,1,6.217,3.39a6.532,6.532,0,0,1,8.791,8.8A6.574,6.574,0,0,1,12.18,15.017Z" fill="#333"/>
  <path id="パス_10" data-name="パス 10" d="M334.1,331.43l-5.31-5.3a10.943,10.943,0,0,1-2.828,2.83l5.31,5.3a2,2,0,1,0,2.828-2.83Z" transform="translate(-310.681 -310.837)" fill="#333"/>
</svg>
